<svg width="29" height="29" viewBox="0 0 29 29" fill="none" xmlns="http://www.w3.org/2000/svg">
<path d="M6.21276 25.8002L3.29267 23.2046C2.86263 22.8223 2.84307 22.1569 3.24992 21.7501L5.62596 19.374C6.2011 18.7989 5.88556 17.8143 5.08325 17.6805L1.8356 17.1393C1.35341 17.0589 1 16.6417 1 16.1529V12.8471C1 12.3583 1.35341 11.9411 1.8356 11.8607L5.21421 11.2976C5.99024 11.1683 6.3199 10.2349 5.79722 9.64687L3.66957 7.25327C3.30063 6.83821 3.34054 6.20202 3.75848 5.83633L6.21349 3.6882C6.64214 3.31312 7.29705 3.37131 7.65286 3.81608L9.55607 6.19508C10.1032 6.87906 11.203 6.57893 11.3269 5.71181L11.8773 1.85858C11.9477 1.36593 12.3696 1 12.8673 1H16.2045C16.6701 1 17.0742 1.32141 17.1789 1.77514L18.0272 5.45115C18.2166 6.27191 19.2738 6.50513 19.7909 5.84023L21.3444 3.84291C21.6993 3.3866 22.3661 3.32538 22.7981 3.70944L25.748 6.33152C26.1625 6.70004 26.198 7.33559 25.8269 7.7479L23.5021 10.331C22.9229 10.9746 23.3796 12 24.2454 12H27C27.5523 12 28 12.4477 28 13V16C28 16.5523 27.5523 17 27 17H24.0806C23.2421 17 22.7759 17.9699 23.2998 18.6247L25.4409 21.3011C25.7592 21.699 25.7274 22.2726 25.3671 22.6329L22.79 25.21C22.3686 25.6314 21.6744 25.593 21.302 25.1276L19.5963 22.9953C19.0278 22.2847 17.8828 22.6411 17.8179 23.5488L17.5663 27.0712C17.529 27.5946 17.0935 28 16.5689 28H12.8579C12.3643 28 11.9446 27.6399 11.8695 27.1521L11.3463 23.7513C11.2139 22.8906 10.1211 22.5986 9.57711 23.2786L7.65799 25.6775C7.30025 26.1247 6.64077 26.1807 6.21276 25.8002Z" stroke="#727272"/>
<circle cx="14.5" cy="14.5" r="3.5" stroke="#727272"/>
</svg>
