<svg width="15" height="14" viewBox="0 0 15 14" fill="none" xmlns="http://www.w3.org/2000/svg">
<path fill-rule="evenodd" clip-rule="evenodd" d="M1.09375 1.75C0.803669 1.75 0.52547 1.85755 0.320352 2.049C0.115234 2.24044 0 2.50009 0 2.77083L0 10.9375C0 11.501 0.49 11.9583 1.09375 11.9583H13.9062C14.1963 11.9583 14.4745 11.8508 14.6796 11.6593C14.8848 11.4679 15 11.2082 15 10.9375V2.77083C15 2.50009 14.8848 2.24044 14.6796 2.049C14.4745 1.85755 14.1963 1.75 13.9062 1.75H1.09375ZM0.9375 2.77083C0.9375 2.73216 0.953962 2.69506 0.983265 2.66771C1.01257 2.64036 1.05231 2.625 1.09375 2.625H13.9062C13.9477 2.625 13.9874 2.64036 14.0167 2.66771C14.046 2.69506 14.0625 2.73216 14.0625 2.77083V3.26783L7.5875 7.35117C7.56166 7.36747 7.53119 7.37618 7.5 7.37618C7.46881 7.37618 7.43834 7.36747 7.4125 7.35117L0.9375 3.26783V2.77083ZM0.9375 4.32367V10.9375C0.9375 11.018 1.0075 11.0833 1.09375 11.0833H13.9062C13.9477 11.0833 13.9874 11.068 14.0167 11.0406C14.046 11.0133 14.0625 10.9762 14.0625 10.9375V4.32367L8.1125 8.07625C7.7425 8.30958 7.2575 8.30958 6.8875 8.07625L0.9375 4.32367Z" fill="#00FF80"/>
</svg>
