<svg width="30" height="20" viewBox="0 0 30 20" fill="none" xmlns="http://www.w3.org/2000/svg">
<path fill-rule="evenodd" clip-rule="evenodd" d="M2.1875 0C1.60734 0 1.05094 0.210714 0.640704 0.585787C0.230468 0.960859 0 1.46957 0 2L0 18C0 19.104 0.98 20 2.1875 20H27.8125C28.3927 20 28.9491 19.7893 29.3593 19.4142C29.7695 19.0391 30 18.5304 30 18V2C30 1.46957 29.7695 0.960859 29.3593 0.585787C28.9491 0.210714 28.3927 0 27.8125 0H2.1875ZM1.875 2C1.875 1.92422 1.90792 1.85155 1.96653 1.79797C2.02513 1.74439 2.10462 1.71429 2.1875 1.71429H27.8125C27.8954 1.71429 27.9749 1.74439 28.0335 1.79797C28.0921 1.85155 28.125 1.92422 28.125 2V2.97371L15.175 10.9737C15.1233 11.0057 15.0624 11.0227 15 11.0227C14.9376 11.0227 14.8767 11.0057 14.825 10.9737L1.875 2.97371V2ZM1.875 5.04229V18C1.875 18.1577 2.015 18.2857 2.1875 18.2857H27.8125C27.8954 18.2857 27.9749 18.2556 28.0335 18.202C28.0921 18.1484 28.125 18.0758 28.125 18V5.04229L16.225 12.3943C15.485 12.8514 14.515 12.8514 13.775 12.3943L1.875 5.04229Z" fill="white"/>
</svg>
