<svg width="795" height="686" viewBox="0 0 795 686" fill="none" xmlns="http://www.w3.org/2000/svg">
<g opacity="0.7">
<mask id="mask0_3058_85" style="mask-type:luminance" maskUnits="userSpaceOnUse" x="0" y="0" width="795" height="686">
<path d="M0 0H794.132V686H0V0Z" fill="white"/>
</mask>
<g mask="url(#mask0_3058_85)">
<path d="M194.16 309.797H135.805V369.457H194.16V309.797Z" fill="url(#paint0_radial_3058_85)" fill-opacity="0.06"/>
<path d="M427.58 130.817H369.225V190.478H427.58V130.817Z" fill="url(#paint1_radial_3058_85)" fill-opacity="0.06"/>
<path d="M369.226 488.775H310.871V548.436H369.226V488.775Z" fill="url(#paint2_radial_3058_85)" fill-opacity="0.06"/>
<path d="M602.646 369.457H544.291V429.116H602.646V369.457Z" fill="url(#paint3_radial_3058_85)" fill-opacity="0.06"/>
<path d="M427.582 309.797H369.227V369.457H427.582V309.797Z" fill="url(#paint4_radial_3058_85)" fill-opacity="0.06"/>
<path d="M19.0936 -107.822H-39.2617V-48.1621M19.0936 -107.822V-48.1621M19.0936 -107.822H77.449M-39.2617 -48.1621H19.0936M-39.2617 -48.1621V11.4972M19.0936 -48.1621H77.449M19.0936 -48.1621V11.4972M77.449 -107.822V-48.1621M77.449 -107.822H135.804M77.449 -48.1621H135.804M77.449 -48.1621V11.4972M19.0936 11.4972H-39.2617M19.0936 11.4972H77.449M19.0936 11.4972V71.1574M-39.2617 11.4972V71.1574M135.804 -107.822V-48.1621M135.804 -107.822H194.16M135.804 -48.1621H194.16M135.804 -48.1621V11.4972M77.449 11.4972H135.804M77.449 11.4972V71.1574M194.16 -107.822V-48.1621M194.16 -107.822H252.515M194.16 -48.1621H252.515M194.16 -48.1621V11.4972M135.804 11.4972H194.16M135.804 11.4972V71.1574M252.515 -107.822V-48.1621M252.515 -107.822H310.87M252.515 -48.1621H310.87M252.515 -48.1621V11.4972M194.16 11.4972H252.515M194.16 11.4972V71.1574M310.87 -107.822V-48.1621M310.87 -107.822H369.226M310.87 -48.1621H369.226M310.87 -48.1621V11.4972M252.515 11.4972H310.87M252.515 11.4972V71.1574M369.226 -107.822V-48.1621M369.226 -107.822H427.581M369.226 -48.1621H427.581M369.226 -48.1621V11.4972M310.87 11.4972H369.226M310.87 11.4972V71.1574M427.581 -107.822V-48.1621M427.581 -107.822H485.936M427.581 -48.1621H485.936M427.581 -48.1621V11.4972M369.226 11.4972H427.581M369.226 11.4972V71.1574M485.936 -107.822V-48.1621M485.936 -107.822H544.292M485.936 -48.1621H544.292M485.936 -48.1621V11.4972M427.581 11.4972H485.936M427.581 11.4972V71.1574M544.292 -107.822V-48.1621M544.292 -107.822H602.647M544.292 -48.1621H602.647M544.292 -48.1621V11.4972M485.936 11.4972H544.292M485.936 11.4972V71.1574M602.647 -107.822V-48.1621M602.647 -107.822H661.002M602.647 -48.1621H661.002M602.647 -48.1621V11.4972M544.292 11.4972H602.647M544.292 11.4972V71.1574M661.002 -107.822V-48.1621M661.002 -107.822H719.358M661.002 -48.1621H719.358M661.002 -48.1621V11.4972M602.647 11.4972H661.002M602.647 11.4972V71.1574M719.358 -107.822V-48.1621M719.358 -107.822H777.713M719.358 -48.1621H777.713M719.358 -48.1621V11.4972M661.002 11.4972H719.358M661.002 11.4972V71.1574M777.713 -107.822V-48.1621M777.713 -107.822H836.068V-48.1621M777.713 -48.1621H836.068M777.713 -48.1621V11.4972M719.358 11.4972H777.713M719.358 11.4972V71.1574M836.068 -48.1621V11.4972M777.713 11.4972H836.068M777.713 11.4972V71.1574M836.068 11.4972V71.1574M19.0936 71.1574H-39.2617M19.0936 71.1574H77.449M19.0936 71.1574V130.817M-39.2617 71.1574V130.817M77.449 71.1574H135.804M77.449 71.1574V130.817M135.804 71.1574H194.16M135.804 71.1574V130.817M194.16 71.1574H252.515M194.16 71.1574V130.817M252.515 71.1574H310.87M252.515 71.1574V130.817M310.87 71.1574H369.226M310.87 71.1574V130.817M369.226 71.1574H427.581M369.226 71.1574V130.817M427.581 71.1574H485.936M427.581 71.1574V130.817M485.936 71.1574H544.292M485.936 71.1574V130.817M544.292 71.1574H602.647M544.292 71.1574V130.817M602.647 71.1574H661.002M602.647 71.1574V130.817M661.002 71.1574H719.358M661.002 71.1574V130.817M719.358 71.1574H777.713M719.358 71.1574V130.817M777.713 71.1574H836.068M777.713 71.1574V130.817M836.068 71.1574V130.817M19.0936 130.817H-39.2617M19.0936 130.817H77.449M19.0936 130.817V190.477M-39.2617 130.817V190.477M77.449 130.817H135.804M77.449 130.817V190.477M135.804 130.817H194.16M135.804 130.817V190.477M194.16 130.817H252.515M194.16 130.817V190.477M252.515 130.817H310.87M252.515 130.817V190.477M310.87 130.817H369.226M310.87 130.817V190.477M369.226 130.817H427.581M369.226 130.817V190.477M427.581 130.817H485.936M427.581 130.817V190.477M485.936 130.817H544.292M485.936 130.817V190.477M544.292 130.817H602.647M544.292 130.817V190.477M602.647 130.817H661.002M602.647 130.817V190.477M661.002 130.817H719.358M661.002 130.817V190.477M719.358 130.817H777.713M719.358 130.817V190.477M777.713 130.817H836.068M777.713 130.817V190.477M836.068 130.817V190.477M19.0936 190.477H-39.2617M19.0936 190.477H77.449M19.0936 190.477V250.137M-39.2617 190.477V250.137M77.449 190.477H135.804M77.449 190.477V250.137M135.804 190.477H194.16M135.804 190.477V250.137M194.16 190.477H252.515M194.16 190.477V250.137M252.515 190.477H310.87M252.515 190.477V250.137M310.87 190.477H369.226M310.87 190.477V250.137M369.226 190.477H427.581M369.226 190.477V250.137M427.581 190.477H485.936M427.581 190.477V250.137M485.936 190.477H544.292M485.936 190.477V250.137M544.292 190.477H602.647M544.292 190.477V250.137M602.647 190.477H661.002M602.647 190.477V250.137M661.002 190.477H719.358M661.002 190.477V250.137M719.358 190.477H777.713M719.358 190.477V250.137M777.713 190.477H836.068M777.713 190.477V250.137M836.068 190.477V250.137M19.0936 250.137H-39.2617M19.0936 250.137H77.449M19.0936 250.137V309.796M-39.2617 250.137V309.796M77.449 250.137H135.804M77.449 250.137V309.796M135.804 250.137H194.16M135.804 250.137V309.796M194.16 250.137H252.515M194.16 250.137V309.796M252.515 250.137H310.87M252.515 250.137V309.796M310.87 250.137H369.226M310.87 250.137V309.796M369.226 250.137H427.581M369.226 250.137V309.796M427.581 250.137H485.936M427.581 250.137V309.796M485.936 250.137H544.292M485.936 250.137V309.796M544.292 250.137H602.647M544.292 250.137V309.796M602.647 250.137H661.002M602.647 250.137V309.796M661.002 250.137H719.358M661.002 250.137V309.796M719.358 250.137H777.713M719.358 250.137V309.796M777.713 250.137H836.068M777.713 250.137V309.796M836.068 250.137V309.796M19.0936 309.796H-39.2617M19.0936 309.796H77.449M19.0936 309.796V369.457M-39.2617 309.796V369.457M77.449 309.796H135.804M77.449 309.796V369.457M135.804 309.796H194.16M135.804 309.796V369.457M194.16 309.796H252.515M194.16 309.796V369.457M252.515 309.796H310.87M252.515 309.796V369.457M310.87 309.796H369.226M310.87 309.796V369.457M369.226 309.796H427.581M369.226 309.796V369.457M427.581 309.796H485.936M427.581 309.796V369.457M485.936 309.796H544.292M485.936 309.796V369.457M544.292 309.796H602.647M544.292 309.796V369.457M602.647 309.796H661.002M602.647 309.796V369.457M661.002 309.796H719.358M661.002 309.796V369.457M719.358 309.796H777.713M719.358 309.796V369.457M777.713 309.796H836.068M777.713 309.796V369.457M836.068 309.796V369.457M19.0936 369.457H-39.2617M19.0936 369.457H77.449M19.0936 369.457V429.116M-39.2617 369.457V429.116M77.449 369.457H135.804M77.449 369.457V429.116M135.804 369.457H194.16M135.804 369.457V429.116M194.16 369.457H252.515M194.16 369.457V429.116M252.515 369.457H310.87M252.515 369.457V429.116M310.87 369.457H369.226M310.87 369.457V429.116M369.226 369.457H427.581M369.226 369.457V429.116M427.581 369.457H485.936M427.581 369.457V429.116M485.936 369.457H544.292M485.936 369.457V429.116M544.292 369.457H602.647M544.292 369.457V429.116M602.647 369.457H661.002M602.647 369.457V429.116M661.002 369.457H719.358M661.002 369.457V429.116M719.358 369.457H777.713M719.358 369.457V429.116M777.713 369.457H836.068M777.713 369.457V429.116M836.068 369.457V429.116M19.0936 429.116H-39.2617M19.0936 429.116H77.449M19.0936 429.116V488.776M-39.2617 429.116V488.776M77.449 429.116H135.804M77.449 429.116V488.776M135.804 429.116H194.16M135.804 429.116V488.776M194.16 429.116H252.515M194.16 429.116V488.776M252.515 429.116H310.87M252.515 429.116V488.776M310.87 429.116H369.226M310.87 429.116V488.776M369.226 429.116H427.581M369.226 429.116V488.776M427.581 429.116H485.936M427.581 429.116V488.776M485.936 429.116H544.292M485.936 429.116V488.776M544.292 429.116H602.647M544.292 429.116V488.776M602.647 429.116H661.002M602.647 429.116V488.776M661.002 429.116H719.358M661.002 429.116V488.776M719.358 429.116H777.713M719.358 429.116V488.776M777.713 429.116H836.068M777.713 429.116V488.776M836.068 429.116V488.776M19.0936 488.776H-39.2617M19.0936 488.776H77.449M19.0936 488.776V548.436M-39.2617 488.776V548.436M77.449 488.776H135.804M77.449 488.776V548.436M135.804 488.776H194.16M135.804 488.776V548.436M194.16 488.776H252.515M194.16 488.776V548.436M252.515 488.776H310.87M252.515 488.776V548.436M310.87 488.776H369.226M310.87 488.776V548.436M369.226 488.776H427.581M369.226 488.776V548.436M427.581 488.776H485.936M427.581 488.776V548.436M485.936 488.776H544.292M485.936 488.776V548.436M544.292 488.776H602.647M544.292 488.776V548.436M602.647 488.776H661.002M602.647 488.776V548.436M661.002 488.776H719.358M661.002 488.776V548.436M719.358 488.776H777.713M719.358 488.776V548.436M777.713 488.776H836.068M777.713 488.776V548.436M836.068 488.776V548.436M19.0936 548.436H-39.2617M19.0936 548.436H77.449M19.0936 548.436V608.096M-39.2617 548.436V608.096M77.449 548.436H135.804M77.449 548.436V608.096M135.804 548.436H194.16M135.804 548.436V608.096M194.16 548.436H252.515M194.16 548.436V608.096M252.515 548.436H310.87M252.515 548.436V608.096M310.87 548.436H369.226M310.87 548.436V608.096M369.226 548.436H427.581M369.226 548.436V608.096M427.581 548.436H485.936M427.581 548.436V608.096M485.936 548.436H544.292M485.936 548.436V608.096M544.292 548.436H602.647M544.292 548.436V608.096M602.647 548.436H661.002M602.647 548.436V608.096M661.002 548.436H719.358M661.002 548.436V608.096M719.358 548.436H777.713M719.358 548.436V608.096M777.713 548.436H836.068M777.713 548.436V608.096M836.068 548.436V608.096M19.0936 608.096H-39.2617M19.0936 608.096H77.449M19.0936 608.096V667.756M-39.2617 608.096V667.756M77.449 608.096H135.804M77.449 608.096V667.756M135.804 608.096H194.16M135.804 608.096V667.756M194.16 608.096H252.515M194.16 608.096V667.756M252.515 608.096H310.87M252.515 608.096V667.756M310.87 608.096H369.226M310.87 608.096V667.756M369.226 608.096H427.581M369.226 608.096V667.756M427.581 608.096H485.936M427.581 608.096V667.756M485.936 608.096H544.292M485.936 608.096V667.756M544.292 608.096H602.647M544.292 608.096V667.756M602.647 608.096H661.002M602.647 608.096V667.756M661.002 608.096H719.358M661.002 608.096V667.756M719.358 608.096H777.713M719.358 608.096V667.756M777.713 608.096H836.068M777.713 608.096V667.756M836.068 608.096V667.756M19.0936 667.756H-39.2617M19.0936 667.756H77.449M19.0936 667.756V727.415M-39.2617 667.756V727.415M77.449 667.756H135.804M77.449 667.756V727.415M135.804 667.756H194.16M135.804 667.756V727.415M194.16 667.756H252.515M194.16 667.756V727.415M252.515 667.756H310.87M252.515 667.756V727.415M310.87 667.756H369.226M310.87 667.756V727.415M369.226 667.756H427.581M369.226 667.756V727.415M427.581 667.756H485.936M427.581 667.756V727.415M485.936 667.756H544.292M485.936 667.756V727.415M544.292 667.756H602.647M544.292 667.756V727.415M602.647 667.756H661.002M602.647 667.756V727.415M661.002 667.756H719.358M661.002 667.756V727.415M719.358 667.756H777.713M719.358 667.756V727.415M777.713 667.756H836.068M777.713 667.756V727.415M836.068 667.756V727.415M19.0936 727.415H-39.2617M19.0936 727.415H77.449M19.0936 727.415V787.075M-39.2617 727.415V787.075H19.0936M77.449 727.415H135.804M77.449 727.415V787.075M135.804 727.415H194.16M135.804 727.415V787.075M194.16 727.415H252.515M194.16 727.415V787.075M252.515 727.415H310.87M252.515 727.415V787.075M310.87 727.415H369.226M310.87 727.415V787.075M369.226 727.415H427.581M369.226 727.415V787.075M427.581 727.415H485.936M427.581 727.415V787.075M485.936 727.415H544.292M485.936 727.415V787.075M544.292 727.415H602.647M544.292 727.415V787.075M602.647 727.415H661.002M602.647 727.415V787.075M661.002 727.415H719.358M661.002 727.415V787.075M719.358 727.415H777.713M719.358 727.415V787.075M777.713 727.415H836.068M777.713 727.415V787.075M836.068 727.415V787.075H777.713M19.0936 787.075H77.449M77.449 787.075H135.804M135.804 787.075H194.16M194.16 787.075H252.515M252.515 787.075H310.87M310.87 787.075H369.226M369.226 787.075H427.581M427.581 787.075H485.936M485.936 787.075H544.292M544.292 787.075H602.647M602.647 787.075H661.002M661.002 787.075H719.358M719.358 787.075H777.713" stroke="url(#paint5_radial_3058_85)" stroke-opacity="0.2"/>
</g>
</g>
<defs>
<radialGradient id="paint0_radial_3058_85" cx="0" cy="0" r="1" gradientUnits="userSpaceOnUse" gradientTransform="translate(166.003 370.874) rotate(90.6921) scale(42.287 75.024)">
<stop stop-color="white" stop-opacity="0.8"/>
<stop offset="1" stop-color="#05041F"/>
</radialGradient>
<radialGradient id="paint1_radial_3058_85" cx="0" cy="0" r="1" gradientUnits="userSpaceOnUse" gradientTransform="translate(398.799 191.294) rotate(90) scale(44.8941 79.6488)">
<stop stop-color="white" stop-opacity="0.8"/>
<stop offset="1" stop-color="#05041F"/>
</radialGradient>
<radialGradient id="paint2_radial_3058_85" cx="0" cy="0" r="1" gradientUnits="userSpaceOnUse" gradientTransform="translate(340.121 547.319) rotate(92.0252) scale(43.355 76.9227)">
<stop stop-color="white" stop-opacity="0.8"/>
<stop offset="1" stop-color="#05041F"/>
</radialGradient>
<radialGradient id="paint3_radial_3058_85" cx="0" cy="0" r="1" gradientUnits="userSpaceOnUse" gradientTransform="translate(575.001 429.863) rotate(90.6919) scale(42.2871 75.0241)">
<stop stop-color="white" stop-opacity="0.8"/>
<stop offset="1" stop-color="#05041F"/>
</radialGradient>
<radialGradient id="paint4_radial_3058_85" cx="0" cy="0" r="1" gradientUnits="userSpaceOnUse" gradientTransform="translate(398.841 369.83) rotate(90) scale(45.9381 81.5011)">
<stop stop-color="white" stop-opacity="0.8"/>
<stop offset="1" stop-color="#05041F"/>
</radialGradient>
<radialGradient id="paint5_radial_3058_85" cx="0" cy="0" r="1" gradientUnits="userSpaceOnUse" gradientTransform="translate(398.892 340) rotate(90) scale(316.868 309.94)">
<stop stop-color="white"/>
<stop offset="1" stop-color="white" stop-opacity="0"/>
</radialGradient>
</defs>
</svg>
