<svg width="28" height="32" viewBox="0 0 28 32" fill="none" xmlns="http://www.w3.org/2000/svg">
<path d="M8 14.1019V1.8241C8 1.03451 8.87215 0.556382 9.53782 0.981046L26.7634 11.97C27.3575 12.349 27.3838 13.2072 26.8139 13.6217L16 21.4886M0.666667 30.2184L2.66667 27.5323M2.66667 27.5323C2.66667 27.5323 4.66896 30.5079 6.66667 30.8899C7.43401 31.0367 7.89933 31.0367 8.66667 30.8899C10.6644 30.5079 11.9333 29.4427 12.6667 27.5323M2.66667 27.5323V23.5032M2.66667 19.4741C3.09991 17.2921 4.50043 15.8814 6.66667 15.445C7.43255 15.2907 7.90079 15.2907 8.66667 15.445C10.8329 15.8814 12.2334 17.2921 12.6667 19.4741M2.66667 19.4741C1.88562 18.9496 0.666667 18.131 0.666667 18.131M2.66667 19.4741C2.66667 19.9986 2.66667 20.8171 2.66667 20.8171M12.6667 19.4741C13.4477 18.9496 14.6667 18.131 14.6667 18.131M12.6667 19.4741C12.6667 19.9986 12.6667 20.8171 12.6667 20.8171M12.6667 27.5323C12.6667 25.9589 12.6667 23.5032 12.6667 23.5032M12.6667 27.5323C13.4477 28.5813 14.6667 30.2184 14.6667 30.2184M2.66667 23.5032H0M2.66667 23.5032V20.8171M12.6667 23.5032C12.6667 23.5032 14.2919 23.5032 15.3333 23.5032M12.6667 23.5032V20.8171M2.66667 20.8171H12.6667" stroke="#727272"/>
</svg>
