<svg width="37" height="41" viewBox="0 0 37 41" fill="none" xmlns="http://www.w3.org/2000/svg">
<path d="M25.2308 29.3636V39C25.2308 39.5523 24.7831 40 24.2308 40H2.79487H2C1.44772 40 1 39.5523 1 39V12.6364C1 12.0841 1.44772 11.6364 2 11.6364H11.7692M25.2308 29.3636H35C35.5523 29.3636 36 28.9159 36 28.3636V8.09091M25.2308 29.3636H12.7692C12.2169 29.3636 11.7692 28.9159 11.7692 28.3636V11.6364M36 8.09091L30.0164 1.33687C29.8266 1.12264 29.5541 1 29.2679 1H27.9231M36 8.09091H28.9231C28.3708 8.09091 27.9231 7.64319 27.9231 7.09091V1M27.9231 1H12.7692C12.2169 1 11.7692 1.44772 11.7692 2V11.6364" stroke="#E621AF"/>
</svg>
